<?xml version="1.0" encoding="UTF-8" standalone="no"?>
<svg
   xmlns:dc="http://purl.org/dc/elements/1.1/"
   xmlns:cc="http://creativecommons.org/ns#"
   xmlns:rdf="http://www.w3.org/1999/02/22-rdf-syntax-ns#"
   xmlns:svg="http://www.w3.org/2000/svg"
   xmlns="http://www.w3.org/2000/svg"
   xmlns:sodipodi="http://sodipodi.sourceforge.net/DTD/sodipodi-0.dtd"
   xmlns:inkscape="http://www.inkscape.org/namespaces/inkscape"
   version="1.0"
   width="200px"
   preserveAspectRatio="xMidYMid meet"
   id="svg28"
   sodipodi:docname="certified-icon-14.svg"
   height="200px"
   inkscape:version="1.0.2 (e86c870879, 2021-01-15)">
  <metadata
     id="metadata34">
    <rdf:RDF>
      <cc:Work
         rdf:about="">
        <dc:format>image/svg+xml</dc:format>
        <dc:type
           rdf:resource="http://purl.org/dc/dcmitype/StillImage" />
      </cc:Work>
    </rdf:RDF>
  </metadata>
  <defs
     id="defs32" />
  <sodipodi:namedview
     pagecolor="#ffffff"
     bordercolor="#666666"
     borderopacity="1"
     objecttolerance="10"
     gridtolerance="10"
     guidetolerance="10"
     inkscape:pageopacity="0"
     inkscape:pageshadow="2"
     inkscape:window-width="1920"
     inkscape:window-height="1021"
     id="namedview30"
     showgrid="false"
     inkscape:zoom="1.2509766"
     inkscape:cx="341.33333"
     inkscape:cy="117.5082"
     inkscape:window-x="0"
     inkscape:window-y="0"
     inkscape:window-maximized="1"
     inkscape:current-layer="svg28" />
  <g
     transform="matrix(0.03660322,0,0,-0.03660321,2.9888058,193.66541)"
     fill="#000000"
     stroke="none"
     id="g26">
    <path
       d="m 1881,4921 c -51,-18 -90,-54 -557,-523 C 836,3909 821,3893 806,3840 791,3790 790,3615 792,2104 l 3,-1679 33,-68 c 24,-49 48,-79 83,-107 91,-71 74,-70 814,-70 h 662 l 16,58 c 9,31 19,65 22,74 7,17 -34,18 -687,20 l -693,3 -33,23 c -18,13 -41,41 -52,62 -20,39 -20,65 -20,1684 v 1645 l 408,3 c 405,3 407,3 460,27 69,31 137,106 157,174 12,41 15,122 15,444 v 393 h 1035 c 1140,0 1085,3 1125,-62 20,-32 20,-48 20,-830 0,-782 0,-798 20,-830 11,-18 25,-50 31,-70 8,-33 14,-38 39,-38 15,0 36,-3 44,-6 15,-6 16,71 14,882 l -3,889 -28,57 c -29,60 -78,106 -144,136 -35,16 -117,17 -1118,19 -1035,2 -1082,2 -1134,-16 z"
       id="path2" />
    <path
       d="m 2280,3965 v -75 h 790 790 v 75 75 h -790 -790 z"
       id="path4" />
    <path
       d="m 2280,3515 v -75 h 790 790 v 75 75 h -790 -790 z"
       id="path6" />
    <path
       d="m 1240,3065 v -75 h 828 829 l 18,40 c 10,23 36,56 57,75 l 38,35 h -885 -885 z"
       id="path8" />
    <path
       d="m 3372,3103 c -7,-3 -23,-28 -36,-57 -13,-28 -30,-57 -38,-64 -30,-24 -82,-26 -126,-3 -78,40 -122,17 -122,-62 0,-44 -22,-92 -49,-107 -11,-5 -51,-10 -90,-10 -64,0 -72,-2 -86,-24 -15,-23 -15,-29 1,-81 18,-55 18,-58 -1,-93 -17,-31 -30,-40 -80,-57 -33,-11 -66,-24 -73,-28 -21,-14 -13,-60 18,-101 40,-53 42,-113 3,-147 -66,-59 -93,-88 -93,-99 0,-11 26,-38 89,-91 43,-37 43,-97 1,-153 -50,-67 -36,-103 50,-126 86,-23 111,-68 85,-157 -15,-50 -15,-57 0,-79 15,-23 21,-24 90,-22 69,3 76,1 101,-23 20,-20 28,-41 33,-87 11,-94 36,-110 111,-72 77,39 134,22 171,-53 46,-92 70,-97 137,-32 40,39 51,45 89,45 38,0 50,-6 93,-46 66,-61 88,-57 130,26 16,32 39,64 49,70 30,16 78,12 121,-10 75,-38 103,-22 114,65 3,32 11,66 17,77 17,31 66,46 128,41 48,-5 59,-2 75,16 18,20 19,26 8,67 -29,107 -7,149 91,178 85,25 93,56 33,135 -46,62 -32,114 45,174 55,42 62,67 27,97 -88,76 -98,88 -98,122 0,21 13,53 35,88 19,30 35,58 35,63 0,16 -50,57 -71,57 -34,0 -85,29 -98,56 -14,32 -14,67 1,115 8,29 8,45 0,64 -11,24 -16,25 -90,25 -72,0 -80,2 -105,28 -18,19 -28,43 -33,82 -4,30 -11,63 -16,73 -12,23 -59,22 -108,-3 -71,-36 -125,-18 -155,52 -38,88 -74,101 -128,44 -68,-72 -115,-75 -187,-11 -48,43 -68,50 -98,38 z m 343,-340 c 153,-38 317,-169 387,-310 199,-397 -66,-865 -503,-891 -159,-9 -312,38 -426,132 -101,84 -155,163 -199,291 -22,66 -27,98 -27,180 0,176 55,315 173,435 156,158 374,218 595,163 z"
       id="path10" />
    <path
       d="m 3486,2524 c -38,-79 -73,-147 -77,-150 -4,-2 -77,-14 -161,-26 -84,-12 -155,-23 -158,-25 -2,-2 48,-56 112,-121 l 116,-117 -29,-160 c -16,-88 -29,-161 -29,-163 0,-1 67,32 148,75 l 149,78 114,-59 c 63,-32 129,-67 147,-78 22,-14 32,-16 32,-7 0,7 -12,82 -27,167 l -27,156 119,112 c 82,77 115,114 105,117 -8,3 -82,15 -165,27 -82,12 -151,23 -151,23 -1,1 -35,68 -75,149 l -74,148 z"
       id="path12" />
    <path
       d="m 1240,2615 v -75 h 635 634 l 16,34 c 20,42 50,70 101,96 l 39,19 -712,1 h -713 z"
       id="path14" />
    <path
       d="m 1240,2165 v -75 h 608 607 v 75 75 h -607 -608 z"
       id="path16" />
    <path
       d="m 1240,1715 v -75 h 709 c 463,0 712,3 716,10 3,6 0,10 -8,10 -26,0 -104,60 -123,95 l -19,35 h -637 -638 z"
       id="path18" />
    <path
       d="m 2777,908 c -92,-292 -165,-533 -163,-535 2,-2 76,32 165,76 88,45 164,81 168,81 5,0 48,-75 97,-166 56,-102 92,-160 97,-152 7,13 289,903 289,913 0,3 -16,5 -35,5 -20,0 -49,7 -65,15 -32,16 -74,67 -85,103 -8,26 -12,27 -58,7 -116,-48 -220,11 -236,136 -6,46 -14,23 -174,-483 z"
       id="path20" />
    <path
       d="m 4137,1306 c -43,-65 -140,-85 -216,-46 l -39,19 -13,-31 c -40,-98 -139,-144 -218,-103 l -29,14 42,-132 c 23,-73 91,-288 151,-479 61,-192 112,-348 115,-348 3,0 45,63 94,140 48,77 94,140 101,140 7,0 84,-27 171,-60 87,-33 159,-58 160,-57 2,1 -65,216 -147,477 -82,261 -151,479 -152,484 -2,5 -11,-3 -20,-18 z"
       id="path22" />
    <path
       d="m 1240,1215 v -75 h 724 724 l 21,69 c 12,38 21,72 21,75 0,3 -335,6 -745,6 h -745 z"
       id="path24" />
  </g>
</svg>
